<svg viewBox="0 0 512 512" xmlns="http://www.w3.org/2000/svg" fill="#000000">
  <g id="SVGRepo_bgCarrier" stroke-width="0"></g>
  <g id="SVGRepo_tracerCarrier" stroke-linecap="round" stroke-linejoin="round"></g>
  <g id="SVGRepo_iconCarrier">
    <g>
      <path clip-rule="evenodd" d="M353.144,131.492h-4.649v-31.309h-38.423v31.309h-4.39H239.61 h-2.107v-31.309H199.08v31.309h-5.995c-32.376,0-55.193,0-55.193,0V437.43h270.367V131.492 C408.259,131.492,385.479,131.492,353.144,131.492z" fill="#FEE1E3" fill-rule="evenodd"></path>
      
      <g>
        <path d="M388.68,108.377c-1.587-1.587-3.791-2.503-6.034-2.503c0,0-20.971,0-51.227,0V83.107 c0-2.25-0.918-4.448-2.503-6.033c-1.587-1.594-3.791-2.504-6.035-2.504h-38.423c-2.25,0-4.448,0.91-6.034,2.504 c-1.593,1.585-2.503,3.784-2.503,6.033v22.771c-18.247-0.003-37.206,0-55.493-0.003V83.107c0-2.25-0.91-4.448-2.503-6.033 c-1.587-1.594-3.792-2.504-6.035-2.504h-38.423c-2.249,0-4.448,0.91-6.035,2.504c-1.592,1.585-2.502,3.784-2.502,6.033v22.771 c-31.018-0.004-52.594-0.004-52.651-0.004c-2.244,0-4.448,0.916-6.035,2.503c-1.592,1.593-2.502,3.791-2.502,6.04v305.938 c0,2.242,0.91,4.446,2.502,6.033c1.587,1.587,3.791,2.504,6.035,2.504h270.367c2.243,0,4.44-0.917,6.034-2.504 c1.588-1.587,2.503-3.791,2.503-6.033V114.417C391.183,112.167,390.268,109.97,388.68,108.377z M292.996,91.646h21.347v48.378 h-21.347V91.646z M182.005,91.646h21.347v48.378h-21.347V91.646z M120.816,411.816V122.951c1.996,0.001,4.307,0.002,6.919,0.004 c9.237-0.006,22.103-0.006,37.194-0.002v25.609c0,2.249,0.91,4.447,2.502,6.041c1.587,1.585,3.786,2.497,6.035,2.497h38.423 c2.243,0,4.448-0.912,6.035-2.497c1.593-1.594,2.503-3.792,2.503-6.041v-25.609c18.287-0.004,37.246-0.004,55.493-0.004v25.613 c0,2.249,0.91,4.447,2.503,6.041c1.586,1.585,3.784,2.497,6.034,2.497h38.423c2.244,0,4.448-0.912,6.035-2.497 c1.585-1.594,2.503-3.792,2.503-6.041v-25.609c18.698-0.002,33.844-0.004,42.688-0.002v288.865H120.816z" fill="#d4af37"></path>
        
        <g fill="none" stroke="#d4af37" stroke-width="12">
          <circle cx="230" cy="270" r="45" />
          <circle cx="282" cy="270" r="45" />
        </g>
        <path d="M260,230 A45,45 0 0,1 260,310" fill="none" stroke="#d4af37" stroke-width="12" stroke-linecap="round" />
      </g>
    </g>
  </g>
</svg>